<svg version="1.1" xmlns="http://www.w3.org/2000/svg" xmlns:xlink="http://www.w3.org/1999/xlink" width="45.61745" height="52.54883" viewBox="0,0,45.61745,52.54883"><g transform="translate(-219.43902,-147.95117)"><g data-paper-data="{&quot;isPaintingLayer&quot;:true}" fill-rule="nonzero" stroke-linecap="butt" stroke-linejoin="miter" stroke-miterlimit="10" stroke-dasharray="" stroke-dashoffset="0" style="mix-blend-mode: normal"><path d="M220.93903,199v-38h38.12195v38z" fill="none" stroke="#000000" stroke-width="3"/><path d="M264.36852,148.83909c1.66091,1.86852 -0.20761,3.52943 -0.20761,3.52943l-1.52591,1.35636c-4.30196,3.82397 -8.84612,7.51076 -12.32355,12.15513c-6.05289,8.08411 -10.67856,15.42138 -19.52522,20.76372c0,0 -2.14373,1.28624 -3.42997,-0.85749c-1.28624,-2.14373 0.85749,-3.42997 0.85749,-3.42997c8.26427,-4.9229 12.45749,-11.96445 18.09735,-19.4758c3.69212,-4.91727 8.44052,-8.83793 13.00207,-12.89263l1.52591,-1.35636c0,0 1.86852,-1.66091 3.52943,0.20761z" fill="#9966ff" stroke="none" stroke-width="0.5"/></g></g></svg>